<svg viewBox="0 0 48 48" xml:space="preserve" xmlns="http://www.w3.org/2000/svg"><path clip-rule="evenodd" d="M43 46H5a4 4 0 0 1-4-4l4-24c.678-3.442 2.668-4 4.877-4h2.652C14.037 7.052 18.602 2 24 2s9.963 5.052 11.471 12h2.652c2.209 0 4.199.558 4.877 4l4 24a4 4 0 0 1-4 4zM24 4c-4.352 0-8.045 4.178-9.418 10h18.837C32.045 8.178 28.353 4 24 4zm17 14c-.308-1.351-.957-2-2.37-2h-2.828c.123.976.198 1.975.198 3a1 1 0 1 1-2 0c0-1.027-.069-2.031-.201-3H14.201A22.413 22.413 0 0 0 14 19a1 1 0 1 1-2 0c0-1.025.075-2.024.197-3H9.369c-1.412 0-2.06.649-2.369 2L3 42a2 2 0 0 0 2 2h38a2 2 0 0 0 2-2l-4-24z" fill-rule="evenodd" fill="#ffffff" class="fill-000000"></path></svg>